# xmcd
# Copyright (C) 1995-1998 Ti Kan
#
# Track frame offsets:
#       150
#       22130
#       42039
#       67126
#       83589
#       104377
#       125017
#       143987
#       162391
#       180593
#       196797
#       214674
#       235494
#
# Disc length: 3355 seconds
#
# Revision: 0
# Processed by: cddbd v1.5.2PL0 Copyright (c) Steve Scherf et al.
# Submitted via: CD-Transfer v1.0
#
DISCID=b90d190d
DTITLE=Sub Focus - Nick Douwma
DYEAR=09
DGENRE=
TTITLE0=Let The Story Begin
TTITLE1=World Of Hurt
TTITLE2=Follow The Light
TTITLE3=Last Jungle, The
TTITLE4=Deep Space
TTITLE5=Rock It
TTITLE6=Move Higher
TTITLE7=Vapourise
TTITLE8=Triple X
TTITLE9=Could This Be Real
TTITLE10=Splash
TTITLE11=Timewarp
TTITLE12=Coming Closer
EXTD=
EXTT0=
EXTT1=
EXTT2=
EXTT3=
EXTT4=
EXTT5=
EXTT6=
EXTT7=
EXTT8=
EXTT9=
EXTT10=
EXTT11=
EXTT12=
PLAYORDER=
